<svg width="404" height="26" viewBox="0 0 404 26" fill="none" xmlns="http://www.w3.org/2000/svg">
<path fill-rule="evenodd" clip-rule="evenodd" d="M32.6138 11.4122L32.6176 10.6317C32.1628 11.1094 31.5684 11.5285 30.8117 11.5285C29.6687 11.5285 28.8846 10.6544 29.1687 8.7553C29.4807 6.65817 30.7394 5.72686 32.0045 5.72686C32.5249 5.72686 32.9293 5.81999 33.2397 5.9358L33.6449 3.22149L35.0341 3L33.7795 11.4122H32.6138ZM21.1262 4.24641C20.6628 4.24641 20.3826 4.45583 20.3086 4.95768L20.1846 5.78452H21.2245L21.2236 6.92622H20.0146L19.3442 11.4122H17.9993L18.6692 6.92622H17.878L18.0486 5.78452H18.8398L18.9835 4.81774C19.1701 3.57085 20.0083 3.10519 21.1272 3.10519C21.3652 3.10519 21.5419 3.12811 21.6749 3.15176L21.684 4.29298C21.5527 4.26981 21.3523 4.24641 21.1262 4.24641ZM16.8439 4.8409C16.3919 4.8409 16.0792 4.51446 16.1484 4.04905C16.2198 3.57085 16.6323 3.23307 17.0847 3.23307C17.525 3.23307 17.8361 3.57085 17.7649 4.04905C17.6954 4.51446 17.2853 4.8409 16.8439 4.8409ZM3.16396 11.4472H1.69469L0 3.57085L1.624 3.29146L2.78359 9.45451L5.73735 3.37276H7.29768L3.16396 11.4472ZM28.7298 13.5052C29.6214 13.5052 30.34 13.7067 30.7946 13.8925L30.48 15.8861L30.2764 15.7807C29.8482 15.5925 29.3057 15.4151 28.5508 15.427C27.6473 15.427 27.232 15.8362 27.232 16.2178C27.2236 16.6492 27.7201 16.933 28.5236 17.3583C29.8539 18.0148 30.4695 18.8101 30.4603 19.8591C30.4407 21.7647 28.867 23 26.4479 23C25.4142 22.9887 24.4194 22.7669 23.8787 22.5114L24.2019 20.4514L24.5018 20.5984C25.2569 20.9412 25.7471 21.0797 26.6681 21.0797C27.3306 21.0797 28.0407 20.7984 28.0492 20.1824C28.0517 19.7793 27.7512 19.4905 26.8519 19.041C25.98 18.6011 24.8206 17.8628 24.8344 16.5411C24.8501 14.7538 26.449 13.5052 28.7298 13.5052ZM36.704 13.6744H34.9241C34.3722 13.6744 33.96 13.8365 33.7156 14.4385L30.2942 22.8673H32.7147C32.7147 22.8673 33.11 21.7319 33.1997 21.4841C33.324 21.4841 33.909 21.4854 34.5289 21.4868L34.5315 21.4868C35.2299 21.4884 35.972 21.4901 36.1492 21.4901C36.2206 21.811 36.4292 22.8673 36.4292 22.8673H38.5698L36.704 13.6744ZM33.8633 19.6034C34.0548 19.0747 34.7804 17.0307 34.7804 17.0307C34.7744 17.0424 34.8131 16.9336 34.868 16.7789L34.8683 16.7781L34.8685 16.7775C34.9342 16.5923 35.023 16.3421 35.0866 16.1546L35.2408 16.9484C35.2408 16.9484 35.6832 19.1425 35.7757 19.6034H33.8633ZM20.1314 22.8642L21.5728 13.6662H23.8768L22.4354 22.8642H20.1314ZM15.9429 19.9431L18.1984 13.6739H20.638L17.0115 22.8538L14.572 22.855L12.5086 14.8042C13.925 15.4694 15.1408 17.1079 15.7023 18.6687L15.9429 19.9431ZM7.45451 7.99867C7.6942 7.07774 8.20074 6.63549 8.74355 6.63549C9.39872 6.63549 9.66486 7.12454 9.62483 7.99867H7.45451ZM10.8053 8.87256H7.30166C7.20546 9.96721 7.69935 10.4449 8.53593 10.4449C9.23721 10.4449 9.85352 10.1769 10.5171 9.74572L10.512 10.8413C9.86148 11.2604 9.10917 11.5285 8.22765 11.5285C6.7015 11.5285 5.69382 10.6317 5.99671 8.60402C6.2694 6.77446 7.49735 5.66823 8.92121 5.66823C10.5609 5.66823 11.1056 6.93852 10.8675 8.53405C10.8577 8.60033 10.8431 8.67399 10.83 8.7403C10.82 8.79083 10.8108 8.83709 10.8053 8.87256ZM12.6074 11.4122L13.0898 8.18493C13.5645 7.57958 14.3348 7.11272 15.1911 7.05457L15.1836 5.66823C14.3285 5.71455 13.705 6.26224 13.2455 6.9144L13.2445 5.78452H12.0915L11.2514 11.4122H12.6074ZM16.0141 5.78452L15.1731 11.4122H16.5297L17.3701 5.78452H16.0141ZM22.1166 4.04905C22.0473 4.51446 22.36 4.8409 22.812 4.8409C23.253 4.8409 23.664 4.51446 23.734 4.04905C23.804 3.57085 23.4929 3.23307 23.0524 3.23307C22.5999 3.23307 22.188 3.57085 22.1166 4.04905ZM21.1412 11.4122L21.9822 5.78452H23.3375L22.4979 11.4122H21.1412ZM25.2471 7.99867C25.4847 7.07774 25.9919 6.63549 26.5342 6.63549C27.1903 6.63549 27.4563 7.12454 27.4169 7.99867H25.2471ZM28.5981 8.87256H25.0928C24.9978 9.96721 25.4905 10.4449 26.3262 10.4449C27.0277 10.4449 27.6447 10.1769 28.3078 9.74572L28.3027 10.8413C27.6517 11.2604 26.9003 11.5285 26.0183 11.5285C24.4917 11.5285 23.4859 10.6317 23.7879 8.60402C24.0603 6.77446 25.2885 5.66823 26.7128 5.66823C28.3528 5.66823 28.8972 6.93852 28.6589 8.53405C28.6503 8.59306 28.6375 8.65791 28.6257 8.71822L28.6256 8.71837L28.6256 8.71849L28.6256 8.71856L28.6256 8.71863L28.6255 8.71893C28.614 8.77771 28.6033 8.83214 28.5981 8.87256ZM32.0415 6.84491C32.5054 6.84491 32.7538 6.92622 33.0677 7.08932L32.7049 9.51362C32.2744 9.97952 31.8449 10.2816 31.347 10.2816C30.749 10.2816 30.3728 9.76937 30.5359 8.67399C30.7209 7.43892 31.3297 6.84491 32.0415 6.84491ZM37.7011 8.55263C38.0061 8.23536 38.3493 7.99674 38.691 7.99674C39.1536 7.99674 39.4199 8.40208 39.2966 9.22361C39.151 10.194 38.6967 10.6003 38.0459 10.6003C37.7547 10.6003 37.6155 10.5653 37.413 10.4855L37.7011 8.55263ZM37.9338 11.4653C37.292 11.4653 36.7684 11.3589 36.2815 11.182L37.1724 5.20764L38.225 5.04044L37.8404 7.62591C38.1468 7.34362 38.5749 7.06133 39.0967 7.06133C39.9702 7.06133 40.554 7.73183 40.3413 9.1616C40.1074 10.7323 39.1669 11.4653 37.9338 11.4653ZM40.9206 13.0181C41.7178 13.0181 42.2375 12.6917 42.762 11.6416L45 7.14964H43.9808L42.6118 10.1236L42.1073 7.08763L41.0154 7.22901L41.8854 11.4293L41.7501 11.7116C41.575 12.0209 41.3148 12.1625 41.0144 12.1625C40.8178 12.1625 40.6755 12.1358 40.5444 12.1003L40.5512 12.9735C40.6411 13.0002 40.7415 13.0181 40.9206 13.0181Z" fill="#00579F"/>
<path d="M14.0126 14H10.0231L10 14.1262C13.1016 14.7353 15.1481 16.231 16 18L15.1331 14.6185C14.9843 14.1545 14.5498 14.0166 14.0126 14Z" fill="#FAA61A"/>
<path fill-rule="evenodd" clip-rule="evenodd" d="M80.309 16.5559C79.9758 16.3572 79.5246 16.1838 78.8869 16.1838C78.1985 16.1838 77.6446 16.3108 77.6446 16.9626C77.6446 17.4296 78.0582 17.6362 78.5496 17.8817C79.2688 18.241 80.1546 18.6834 80.1546 20.1467C80.1546 22.3909 78.4977 22.9728 76.9991 22.9728C76.3323 22.9728 75.5656 22.7763 75 22.5532L75.4071 20.9038C75.748 21.1799 76.4364 21.3685 76.9991 21.3685C77.5356 21.3685 78.376 21.2385 78.376 20.4055C78.376 19.8448 77.9118 19.615 77.3828 19.3531C76.682 19.0061 75.8673 18.6027 75.8673 17.2987C75.8673 15.2058 77.3328 14.5789 78.7461 14.5789C79.5422 14.5789 80.2902 14.6826 80.7287 14.942L80.309 16.5559ZM85.3494 22.6952C84.7702 22.8733 84.206 22.959 83.6051 22.959C81.7036 22.959 80.711 21.9616 80.711 20.0588C80.711 17.8366 81.9737 16.1972 83.6874 16.1972C85.0909 16.1972 85.986 17.1134 85.986 18.5525C85.986 19.0281 85.9251 19.4942 85.7792 20.1505H82.3857C82.3754 20.2475 82.3716 20.2955 82.3716 20.352C82.3716 21.1067 82.8801 21.488 83.8676 21.488C84.4761 21.488 85.0263 21.3615 85.6359 21.0775L85.3494 22.6952ZM84.4102 18.5131C84.4102 18.5967 84.405 18.7056 84.3976 18.8426L82.519 18.8356C82.6747 18.0922 83.0612 17.6763 83.6051 17.6763C84.1109 17.6763 84.4102 17.9855 84.4102 18.5131ZM90.3353 22.693C89.9841 22.8433 89.515 22.9426 88.823 22.9426C87.3347 22.9426 86.4119 21.6197 86.4119 20.0086C86.4119 17.8999 87.7467 16.2183 89.7115 16.2183C90.1401 16.2183 90.7943 16.3829 91.3102 16.6491L90.9338 18.1956C90.5685 17.9817 90.1883 17.8466 89.7966 17.8466C88.8864 17.8466 88.2362 18.5885 88.2362 19.9184C88.2362 20.6838 88.7075 21.3121 89.453 21.3121C89.8966 21.3121 90.2086 21.2287 90.5902 21.0302L90.3353 22.693ZM96.4874 22.751C96.5355 22.1699 96.6167 21.6286 96.704 21.0716L97.499 16.3257H95.7331L95.23 19.2854C95.1045 20.2348 94.6631 21.0483 93.9153 21.0483C93.4234 21.0716 93.2296 20.6881 93.2296 20.3093C93.2296 20.05 93.2716 19.799 93.3135 19.5483C93.3256 19.4763 93.3376 19.4042 93.3487 19.332L93.8379 16.3257H92.0136L91.5497 19.3231C91.4407 20.0001 91.4102 20.2454 91.4102 20.679C91.4102 21.937 91.968 22.8995 92.9975 22.8995C93.9254 22.8995 94.4565 22.4156 94.9699 21.7044H94.9865L94.8482 22.751H96.4874ZM101.316 16.2628C101.264 16.2499 101.204 16.2445 101.141 16.2445C100.589 16.2445 100.264 16.5288 99.7454 17.2978L99.8963 16.3152H98.3547L97.3139 22.7916H99.0165C99.6288 18.8298 99.7911 18.1479 100.608 18.1479C100.656 18.1479 100.661 18.1479 100.732 18.1555C100.885 17.3721 101.092 16.7978 101.378 16.274L101.316 16.2628ZM103.859 22.959C104.458 22.959 105.023 22.8733 105.604 22.6952L105.888 21.0775C105.278 21.3615 104.727 21.488 104.118 21.488C103.13 21.488 102.623 21.1067 102.623 20.352C102.623 20.3047 102.628 20.2634 102.635 20.1943L102.64 20.1505H106.026C106.177 19.4942 106.24 19.0281 106.24 18.5525C106.24 17.1134 105.343 16.1972 103.939 16.1972C102.226 16.1972 100.962 17.8366 100.962 20.0588C100.962 21.9616 101.954 22.959 103.859 22.959ZM104.647 18.8426C104.658 18.7056 104.665 18.5967 104.665 18.5131C104.665 17.9855 104.363 17.6763 103.859 17.6763C103.315 17.6763 102.929 18.0922 102.771 18.8356L104.647 18.8426ZM112.313 16.8024L112.591 15.0772C112.459 15.0198 112.408 15.0019 112.256 14.9484L112.179 14.9213L111.482 14.7455C111.268 14.693 111.009 14.6599 110.717 14.6599C108.456 14.6599 106.878 16.6489 106.878 19.4987C106.878 21.6163 108.021 22.9364 109.857 22.9364C110.325 22.9364 110.737 22.8769 111.367 22.7041L111.662 20.8879C111.099 21.1698 110.637 21.2984 110.213 21.2984C109.22 21.2984 108.625 20.5662 108.625 19.3568C108.625 17.6045 109.515 16.3714 110.789 16.3714C111.265 16.3714 111.707 16.4978 112.313 16.8024ZM116.054 19.0973C116.054 20.5653 115.542 21.4299 114.738 21.4299C114.149 21.4456 113.793 20.8631 113.793 19.9909C113.793 18.9603 114.314 17.7921 115.149 17.7921C115.821 17.7921 116.054 18.4252 116.054 19.0973ZM115.237 16.2229C116.941 16.2229 117.847 17.4927 117.847 19.1247C117.847 21.8196 116.487 23 114.613 23C112.756 23 112.006 21.6685 112.006 20.0411C112.006 17.767 113.276 16.2229 115.237 16.2229ZM123.557 22.7225H121.948L122.031 22.0902C121.563 22.5887 121.076 22.8095 120.454 22.8095C119.212 22.8095 118.394 21.739 118.394 20.1201C118.394 17.97 119.665 16.1463 121.169 16.1463C121.832 16.1463 122.335 16.425 122.8 17.0385L123.175 14.7617H124.851L123.557 22.7225ZM122.395 19.0171C122.395 20.3003 121.842 21.1994 121.039 21.1994C120.464 21.1994 120.168 20.7708 120.168 19.9275C120.168 18.6486 120.719 17.7489 121.493 17.7489C122.079 17.7489 122.395 18.1917 122.395 19.0171ZM129.367 22.6952C128.778 22.8733 128.221 22.959 127.618 22.959C125.716 22.959 124.721 21.9616 124.721 20.0588C124.721 17.8366 125.987 16.1972 127.7 16.1972C129.103 16.1972 129.997 17.1134 129.997 18.5525C129.997 19.0281 129.939 19.4942 129.788 20.1505H126.398C126.386 20.2475 126.384 20.2955 126.384 20.352C126.384 21.1067 126.892 21.488 127.88 21.488C128.489 21.488 129.039 21.3615 129.65 21.0775L129.367 22.6952ZM128.422 18.5131C128.422 18.5967 128.417 18.7056 128.41 18.8426L126.531 18.8356C126.688 18.0922 127.074 17.6763 127.617 17.6763C128.124 17.6763 128.422 17.9855 128.422 18.5131ZM131.066 22.6724H130.79V21.5988H130.392V21.3681H131.465V21.5988H131.066V22.6724ZM132.637 22.6724H132.895V21.3681H132.496L132.261 22.3965H132.257L132.018 21.3681H131.616V22.6724H131.873V21.5825H131.877L132.117 22.6724H132.387L132.634 21.5825H132.637V22.6724Z" fill="#EE9F2D"/>
<path fill-rule="evenodd" clip-rule="evenodd" d="M113.991 3.42243L113.691 5.18043C113.04 4.86842 112.561 4.74605 112.05 4.74605C110.686 4.74605 109.721 5.9953 109.721 7.77863C109.721 9.01046 110.368 9.7526 111.433 9.7526C111.886 9.7526 112.383 9.62172 112.99 9.33484L112.671 11.1846C111.998 11.3591 111.559 11.4211 111.051 11.4211C109.075 11.4211 107.845 10.0784 107.845 7.92329C107.845 5.02442 109.544 3 111.974 3C112.287 3 112.567 3.02755 112.795 3.08732L113.551 3.26561C113.642 3.29818 113.704 3.31955 113.757 3.33772C113.835 3.36442 113.893 3.38421 113.991 3.42243ZM80.5211 11.2717H82.3521L83.7716 3.16756H80.9238L79.1424 8.18242L79.0699 3.16756H76.4312L75 11.2717H76.7151L77.8198 5.08075L77.9715 11.2717H79.2265L81.5697 5.04408L80.5211 11.2717ZM86.6602 8.30787C86.7914 8.30787 86.8768 8.31557 87.0703 8.33624C87.0399 9.31401 86.4996 9.98564 85.7543 9.98564C85.3541 9.98564 85.0954 9.72408 85.0954 9.31401C85.0954 8.64825 85.6216 8.30787 86.6602 8.30787ZM88.4032 11.2718H86.8857L86.919 10.5878C86.4562 11.1332 85.8383 11.3865 84.9985 11.3865C84.0022 11.3865 83.3217 10.6521 83.3217 9.59102C83.3217 7.98194 84.5108 7.04793 86.5431 7.04793C86.7505 7.04793 87.0157 7.06232 87.2883 7.09676C87.3457 6.87876 87.361 6.78475 87.361 6.66926C87.361 6.23387 87.0425 6.06854 86.1836 6.06854C85.665 6.06854 85.07 6.13986 84.6597 6.25696L84.4048 6.32342L84.2442 6.36617L84.4966 4.88817C85.4115 4.63187 86.0142 4.5332 86.6933 4.5332C88.2683 4.5332 89.1029 5.20261 89.1029 6.46565C89.1029 6.79387 89.0761 7.03719 88.9512 7.77326L88.5677 10.1081L88.5051 10.5297L88.4581 10.8656L88.4262 11.0952L88.4032 11.2718ZM91.0996 8.60268C90.1361 8.17276 89.7107 7.59736 89.7107 6.76567C89.703 5.54943 90.4101 4.53783 92.45 4.53783C92.8707 4.53783 93.5802 4.59456 94.0582 4.6679L93.7968 6.18966C93.3318 6.1301 92.845 6.09181 92.4858 6.09181C91.8973 6.09181 91.5938 6.27537 91.5938 6.63256C91.5938 6.93869 91.6806 7.01589 92.445 7.3441C93.3611 7.74364 93.732 8.2769 93.732 9.17869C93.732 10.6798 92.8426 11.379 90.9198 11.379C90.6827 11.379 90.3478 11.3615 89.9107 11.3247C89.7003 11.304 89.5411 11.2858 89.4329 11.2649L89.0963 11.2007L89.0135 11.1847L89.2673 9.66453C89.8533 9.84647 90.3617 9.92853 90.9057 9.92853C91.6269 9.92853 91.9544 9.73869 91.9544 9.32943C91.9544 9.02957 91.8372 8.93313 91.0996 8.60268ZM96.9352 11.1916C96.4369 11.3407 96.0432 11.4088 95.6203 11.4088C94.6849 11.4088 94.174 10.8956 94.174 9.95916C94.174 9.7756 94.1893 9.57725 94.2262 9.36857L94.3396 8.72591L94.4237 8.20096L95.219 3.70415H97.0409L96.8319 4.68172H97.7698L97.5124 6.28392H96.577L96.0929 9.03427L96.0846 9.09476C96.072 9.18611 96.0623 9.25612 96.0623 9.30718C96.0623 9.64472 96.2535 9.79546 96.6868 9.79546C96.8983 9.79546 97.0575 9.7756 97.1799 9.73427L96.9352 11.1916ZM100.857 11.3979C101.507 11.4001 102.113 11.3106 102.74 11.1331L103.046 9.4837C102.387 9.77525 101.799 9.90289 101.145 9.90289C100.079 9.90289 99.5332 9.5151 99.5332 8.7446C99.5332 8.68645 99.5359 8.64046 99.5512 8.54037H103.195C103.358 7.87239 103.423 7.39971 103.423 6.91467C103.423 5.45025 102.456 4.51624 100.95 4.51624C99.104 4.51624 97.7455 6.18327 97.7455 8.44778C97.7455 10.3849 98.8134 11.3979 100.857 11.3979ZM101.712 7.20938C101.722 7.07161 101.725 6.95916 101.725 6.87569C101.725 6.33717 101.402 6.02272 100.857 6.02272C100.276 6.02272 99.8594 6.44272 99.6887 7.20472L101.712 7.20938ZM107.72 4.6103C107.786 4.6103 107.85 4.61719 107.908 4.62712L107.97 4.64474C107.663 5.17739 107.44 5.76109 107.277 6.5551C107.202 6.54821 107.197 6.54821 107.143 6.54821C106.26 6.54821 106.092 7.24375 105.433 11.2717H103.591L104.717 4.68142H106.378L106.214 5.68309C106.775 4.898 107.117 4.6103 107.72 4.6103ZM116.74 8.30787C116.869 8.30787 116.957 8.31557 117.148 8.33624C117.115 9.31401 116.581 9.98564 115.832 9.98564C115.432 9.98564 115.171 9.72408 115.171 9.31401C115.171 8.64825 115.698 8.30787 116.74 8.30787ZM118.482 11.2718H116.962L116.998 10.5878C116.535 11.1332 115.916 11.3865 115.077 11.3865C114.081 11.3865 113.398 10.6521 113.398 9.59102C113.398 7.98194 114.586 7.04793 116.622 7.04793C116.828 7.04793 117.096 7.06232 117.367 7.09676C117.423 6.87876 117.44 6.78475 117.44 6.66926C117.44 6.23387 117.121 6.06854 116.262 6.06854C115.741 6.06854 115.148 6.13986 114.741 6.25696L114.48 6.32342L114.322 6.36617L114.577 4.88817C115.493 4.63187 116.094 4.5332 116.768 4.5332C118.346 4.5332 119.18 5.20261 119.18 6.46565C119.18 6.79387 119.149 7.03719 119.03 7.77326L118.644 10.1081L118.587 10.5297L118.536 10.8656L118.503 11.0952L118.482 11.2718ZM123.417 4.6103C123.487 4.6103 123.547 4.61719 123.602 4.62712L123.664 4.64474C123.356 5.17739 123.132 5.76109 122.966 6.5551C122.91 6.54664 122.898 6.54697 122.871 6.54768C122.863 6.54792 122.852 6.54821 122.837 6.54821C121.961 6.54821 121.787 7.24375 121.129 11.2717H119.293L120.414 4.68142H122.072L121.908 5.68309C122.472 4.898 122.816 4.6103 123.417 4.6103ZM128.589 11.2717H126.855L126.945 10.626C126.441 11.1362 125.922 11.3589 125.252 11.3589C123.911 11.3589 123.034 10.2709 123.034 8.62309C123.034 6.43111 124.398 4.58052 126.019 4.58052C126.731 4.58052 127.27 4.85829 127.777 5.48252L128.176 3.16756H129.983L128.589 11.2717ZM127.339 7.49984C127.339 8.80441 126.74 9.72018 125.884 9.72018C125.261 9.72018 124.944 9.28559 124.944 8.4225C124.944 7.12583 125.534 6.20621 126.364 6.20621C126.998 6.20621 127.339 6.66227 127.339 7.49984ZM129.653 10.3163C129.653 9.74337 130.146 9.27981 130.749 9.27981C131.354 9.27981 131.842 9.74337 131.842 10.3163C131.842 10.8901 131.354 11.3539 130.749 11.3539C130.146 11.3539 129.653 10.8901 129.653 10.3163ZM131.585 10.3161C131.585 10.7523 131.209 11.1081 130.749 11.1081C130.29 11.1081 129.913 10.7523 129.913 10.3161C129.913 9.88234 130.29 9.5296 130.749 9.5296C131.209 9.5296 131.585 9.88234 131.585 10.3161ZM130.599 10.7708H130.375V9.85747H130.782C130.865 9.85747 130.958 9.86193 131.029 9.90792C131.107 9.95918 131.151 10.0455 131.151 10.1375C131.151 10.2384 131.088 10.3332 130.986 10.3676L131.162 10.7708H130.912L130.764 10.4128H130.599V10.7708ZM130.725 10.2575H130.599V10.0247H130.722C130.728 10.0247 130.734 10.0246 130.74 10.0245C130.78 10.024 130.834 10.0232 130.862 10.0409C130.895 10.0569 130.917 10.0983 130.917 10.1327C130.917 10.1718 130.9 10.2162 130.862 10.2383C130.826 10.2577 130.777 10.2576 130.733 10.2575L130.725 10.2575Z" fill="#D9222A"/>
<path fill-rule="evenodd" clip-rule="evenodd" d="M187.48 3C187.508 3.1221 189.526 8.27134 190.53 10.7147C190.67 11.056 190.632 11.2948 190.406 11.5507C190.297 11.675 190.192 11.8037 190.087 11.9323L190.087 11.9324L190.087 11.9324L190.087 11.9324L190.087 11.9324L190.087 11.9324L190.087 11.9325L190.087 11.9325L190.087 11.9325L190.087 11.9325L190.087 11.9326L190.087 11.9326L190.087 11.9326L190.087 11.9326L190.087 11.9327L190.087 11.9327L190.087 11.9327L190.086 11.9327L190.086 11.9327L190.086 11.9328L190.086 11.9328C189.949 12.1007 189.812 12.2686 189.665 12.4266C189.155 12.9736 188.75 13.5979 188.346 14.2224C188.255 14.3615 188.165 14.5006 188.074 14.6388C188.048 14.6785 188.018 14.7161 187.989 14.7537C187.975 14.7712 187.962 14.7886 187.948 14.8063C187.945 14.7834 187.941 14.7604 187.937 14.7375C187.928 14.6883 187.92 14.6391 187.92 14.5899C187.918 12.8562 187.918 11.1225 187.918 9.38883L187.918 9.30931C187.919 9.0742 187.919 8.9657 187.866 8.91686C187.819 8.87502 187.734 8.87699 187.574 8.88065H187.574H187.574H187.574H187.574H187.574H187.574C187.48 8.88282 187.359 8.88558 187.206 8.88019H185.361C185.282 8.88019 185.212 8.87901 185.152 8.87799C184.77 8.87148 184.762 8.87134 184.762 9.22248C184.759 10.3926 184.76 11.5627 184.76 12.7328L184.76 13.9809L184.76 14.4698C184.76 15.063 184.761 15.6562 184.759 16.2494C184.759 16.2739 184.76 16.2985 184.761 16.323C184.763 16.3706 184.765 16.4182 184.759 16.4658C184.714 16.4382 183.901 15.6552 183.901 15.6552C183.825 15.5687 183.641 15.6137 183.583 15.7129C183.573 15.7299 183.576 15.5409 183.578 15.3709C183.579 15.2792 183.58 15.193 183.579 15.1477C183.576 15.0175 183.539 14.9622 183.383 14.9895C182.619 15.1223 181.849 15.2314 181.075 15.1619C180.565 15.1161 180.051 15.0564 179.617 14.6941C179.302 14.4309 179.114 14.1225 179.102 13.7228C179.101 13.6818 179.099 13.6406 179.098 13.5992L179.098 13.5986V13.5986C179.086 13.2532 179.074 12.8983 179.156 12.5724C179.415 11.5373 180.042 11.1905 181.042 11.0929C181.676 11.0311 182.303 11.1571 182.925 11.2822L182.927 11.2827C182.97 11.2913 183.013 11.2983 183.056 11.3032C183.447 11.3476 183.469 11.3153 183.471 10.8779C183.472 10.6719 183.472 10.466 183.472 10.26C183.471 9.98645 183.471 9.71285 183.473 9.43929C183.475 9.29143 183.446 9.20738 183.274 9.1842C183.109 9.16194 182.945 9.1293 182.781 9.09667C182.541 9.04903 182.302 9.00144 182.061 8.98635C181.29 8.93822 180.516 8.94528 179.746 8.98996C178.994 9.03365 178.123 9.33805 177.507 9.80777C176.686 10.4343 176.419 10.8964 176.125 11.4705C175.866 11.9765 175.81 13.2219 175.863 14.0054C175.882 14.2882 175.961 14.569 176.038 14.8459L176.039 14.8465L176.07 14.9598C176.352 15.9774 177.052 16.5806 177.989 16.9526C179.086 17.3886 180.232 17.4312 181.384 17.3775L181.387 17.3774C181.545 17.37 181.645 17.3653 181.741 17.4889C181.86 17.6413 181.98 17.793 182.1 17.9447L182.1 17.9449L182.1 17.945L182.1 17.9452L182.1 17.9453L182.1 17.9455L182.1 17.9456L182.101 17.9458L182.101 17.9459L182.101 17.946L182.101 17.9462L182.101 17.9463L182.101 17.9465L182.101 17.9466L182.101 17.9468L182.101 17.9469L182.102 17.9471L182.102 17.9472L182.102 17.9474L182.102 17.9475C182.286 18.1807 182.47 18.4139 182.651 18.6497C182.825 18.8772 182.8 18.9452 182.504 19.0387C182.212 19.1308 181.92 19.2198 181.627 19.3089L181.627 19.3089L181.627 19.3089L181.627 19.309L181.627 19.309L181.627 19.3091L181.626 19.3091L181.626 19.3092L181.626 19.3092L181.626 19.3093L181.626 19.3093L181.626 19.3094L181.626 19.3094L181.625 19.3095L181.625 19.3095L181.625 19.3095L181.625 19.3096L181.625 19.3096L181.625 19.3097L181.624 19.3097L181.624 19.3099C181.304 19.4071 180.985 19.5044 180.666 19.6056C179.568 19.9546 178.47 20.3048 177.373 20.655C176.195 21.0307 175.018 21.4063 173.84 21.7804C173.409 21.9173 172.977 22.0522 172.546 22.1871L172.545 22.1874C171.719 22.4454 170.893 22.7034 170.072 22.9752C169.896 23.0338 169.83 22.9856 169.783 22.8624C169.692 22.6246 169.607 22.3842 169.522 22.1437L169.522 22.1436L169.522 22.1436L169.522 22.1436L169.522 22.1435L169.522 22.1435L169.522 22.1435L169.522 22.1435L169.522 22.1434L169.522 22.1434L169.522 22.1434L169.522 22.1433L169.522 22.1433L169.522 22.1433L169.522 22.1433L169.522 22.1432L169.522 22.1432L169.522 22.1432L169.522 22.1431L169.522 22.1431L169.522 22.1431C169.468 21.991 169.414 21.8389 169.359 21.6875L169.113 21.0131C168.655 19.7601 168.197 18.5071 167.732 17.2571C167.655 17.0521 167.744 17.0385 167.895 17.0386L168.399 17.039C168.92 17.0397 169.44 17.0403 169.961 17.0371C170.405 17.0345 170.301 16.2518 170.301 16.2518V15.1536C170.301 14.8845 170.37 14.8259 170.584 14.8197C171.196 14.8022 171.808 14.7735 172.42 14.7388C172.871 14.7133 173.314 14.6059 173.703 14.3849C174.519 13.9222 174.938 13.1903 174.974 12.2378C174.997 11.6507 174.984 11.0775 174.72 10.5242C174.391 9.83675 173.825 9.48676 173.143 9.3202C172.746 9.22318 171.912 9.19646 171.912 9.19646C171.912 9.19646 169.121 9.19519 167.725 9.19646C167.677 9.19651 167.633 9.19613 167.594 9.19579C167.415 9.19422 167.325 9.19344 167.281 9.23769C167.238 9.28152 167.239 9.36954 167.242 9.54477C167.242 9.59216 167.243 9.64593 167.243 9.70693C167.242 10.8841 167.242 12.0613 167.242 13.2385L167.242 13.2418C167.243 13.8894 167.243 14.537 167.243 15.1846C167.243 15.2158 167.243 15.247 167.244 15.2782C167.245 15.3578 167.246 15.4374 167.24 15.5164C167.236 15.5559 167.22 15.5943 167.204 15.6328C167.197 15.6501 167.19 15.6675 167.184 15.6849L167.167 15.6374C167.155 15.6034 167.143 15.5694 167.131 15.5355C167.031 15.2651 166.632 14.1829 166.117 12.7903C164.886 9.46003 163 4.35452 163 4.3285L187.48 3ZM184.427 6.55548C184.334 7.55228 185.239 8.45138 186.238 8.433C187.257 8.41424 188.031 7.63816 188.034 6.59597C188.037 5.59792 187.213 4.69943 186.277 4.68092C185.307 4.66174 184.429 5.55136 184.427 6.55548ZM197.616 12.9064C197.651 12.9351 197.68 12.9683 197.703 13.0062C197.726 13.0442 197.741 13.0858 197.747 13.1313H198.125C198.113 13.0269 198.085 12.9342 198.04 12.8533C197.996 12.7725 197.939 12.7048 197.87 12.65C197.802 12.5953 197.724 12.5535 197.637 12.525C197.55 12.4962 197.458 12.482 197.36 12.482C197.224 12.482 197.102 12.5064 196.994 12.5552C196.885 12.6041 196.794 12.6714 196.719 12.7574C196.645 12.8433 196.588 12.944 196.548 13.0594C196.508 13.1747 196.488 13.2998 196.488 13.4345C196.488 13.5659 196.508 13.6884 196.548 13.8021C196.588 13.9159 196.645 14.0149 196.719 14.0991C196.794 14.1833 196.885 14.2494 196.994 14.2974C197.102 14.3454 197.224 14.3694 197.36 14.3694C197.469 14.3694 197.569 14.3526 197.66 14.3189C197.751 14.2852 197.831 14.2364 197.899 14.1724C197.967 14.1083 198.021 14.0308 198.063 13.9399C198.104 13.8489 198.13 13.747 198.14 13.6341H197.762C197.747 13.7555 197.706 13.8532 197.639 13.9273C197.572 14.0014 197.479 14.0385 197.36 14.0385C197.272 14.0385 197.198 14.0212 197.136 13.9866C197.075 13.9521 197.026 13.9062 196.988 13.8489C196.949 13.7917 196.922 13.7273 196.904 13.6557C196.887 13.5841 196.878 13.5104 196.878 13.4345C196.878 13.3554 196.887 13.2788 196.904 13.2046C196.922 13.1304 196.949 13.0644 196.988 13.0062C197.026 12.9481 197.075 12.9019 197.136 12.8673C197.198 12.8328 197.272 12.8155 197.36 12.8155C197.408 12.8155 197.454 12.8235 197.498 12.8394C197.542 12.8555 197.581 12.8778 197.616 12.9064ZM198.51 13.0594C198.549 12.944 198.607 12.8433 198.681 12.7574C198.756 12.6714 198.847 12.6041 198.955 12.5552C199.064 12.5064 199.186 12.482 199.322 12.482C199.459 12.482 199.582 12.5064 199.689 12.5552C199.797 12.6041 199.888 12.6714 199.962 12.7574C200.037 12.8433 200.094 12.944 200.134 13.0594C200.173 13.1747 200.193 13.2998 200.193 13.4345C200.193 13.5659 200.173 13.6884 200.134 13.8021C200.094 13.9159 200.037 14.0149 199.962 14.0991C199.888 14.1833 199.797 14.2494 199.689 14.2974C199.582 14.3454 199.459 14.3694 199.322 14.3694C199.186 14.3694 199.064 14.3454 198.955 14.2974C198.847 14.2494 198.756 14.1833 198.681 14.0991C198.607 14.0149 198.549 13.9159 198.51 13.8021C198.47 13.6884 198.45 13.5659 198.45 13.4345C198.45 13.2998 198.47 13.1747 198.51 13.0594ZM198.949 13.8492C198.911 13.7921 198.883 13.7276 198.866 13.656C198.849 13.5844 198.84 13.5107 198.84 13.4348C198.84 13.3557 198.849 13.2791 198.866 13.2049C198.883 13.1308 198.911 13.0647 198.949 13.0065C198.987 12.9485 199.037 12.9022 199.098 12.8676C199.159 12.8331 199.234 12.8158 199.322 12.8158C199.409 12.8158 199.484 12.8331 199.545 12.8676C199.606 12.9022 199.656 12.9485 199.694 13.0065C199.732 13.0647 199.76 13.1308 199.777 13.2049C199.795 13.2791 199.804 13.3557 199.804 13.4348C199.804 13.5107 199.795 13.5844 199.777 13.656C199.76 13.7276 199.732 13.7921 199.694 13.8492C199.656 13.9066 199.606 13.9524 199.545 13.9869C199.484 14.0215 199.409 14.0388 199.322 14.0388C199.234 14.0388 199.159 14.0215 199.098 13.9869C199.037 13.9524 198.987 13.9066 198.949 13.8492ZM201.13 12.5252L201.544 13.7658H201.549L201.942 12.5252H202.49V14.3292H202.125V13.0507H202.12L201.686 14.3292H201.385L200.951 13.0634H200.946V14.3292H200.581V12.5252H201.13ZM204.037 12.5744C203.96 12.5416 203.865 12.5252 203.754 12.5252H202.955V14.3292H203.345V13.6824H203.754C203.865 13.6824 203.96 13.666 204.037 13.6331C204.115 13.6003 204.178 13.5569 204.227 13.503C204.276 13.4492 204.312 13.3872 204.334 13.3173C204.356 13.2474 204.368 13.1762 204.368 13.1037C204.368 13.0296 204.356 12.958 204.334 12.8889C204.312 12.82 204.276 12.7584 204.227 12.7045C204.178 12.6507 204.115 12.6072 204.037 12.5744ZM203.648 13.3741C203.692 13.3741 203.735 13.3707 203.777 13.3639C203.818 13.3571 203.854 13.3441 203.886 13.3248C203.917 13.3053 203.943 13.278 203.962 13.2427C203.981 13.2073 203.99 13.1609 203.99 13.1036C203.99 13.0464 203.981 13 203.962 12.9647C203.943 12.9293 203.917 12.902 203.886 12.8825C203.854 12.8632 203.818 12.8502 203.777 12.8434C203.735 12.8367 203.692 12.8333 203.648 12.8333H203.344V13.3741H203.648ZM205.122 13.9957V12.5252H204.733V14.3292H205.987V13.9957H205.122ZM206.717 12.5252V14.3292H206.327V12.5252H206.717ZM208.728 14.3292L208.065 12.5252H207.665L206.995 14.3292H207.387L207.526 13.9275H208.189L208.323 14.3292H208.728ZM208.087 13.6319L207.864 12.9698H207.859L207.628 13.6319H208.087ZM210.131 13.7354L209.391 12.5252H209.004V14.3292H209.369V13.1214H209.374L210.111 14.3292H210.501V12.5252H210.136V13.7354H210.131ZM210.826 12.8587V12.5252H212.279V12.8587H211.748V14.3292H211.358V12.8587H210.826ZM196.488 5.86877H198.791C199.157 5.86877 199.499 5.92845 199.817 6.04812C200.14 6.1695 200.42 6.35222 200.656 6.59542C200.892 6.83883 201.076 7.14102 201.207 7.50045C201.338 7.85789 201.402 8.27341 201.402 8.74649C201.402 9.16044 201.35 9.54431 201.244 9.89773C201.137 10.2569 200.975 10.5693 200.756 10.8331C200.536 11.0987 200.261 11.3075 199.934 11.4586C199.607 11.6102 199.225 11.685 198.791 11.685H196.488H196.299V11.4924V6.06136V5.86877H196.488ZM197.851 10.2955V7.25781H198.499C198.765 7.25781 198.984 7.29543 199.155 7.36842C199.322 7.43948 199.454 7.5397 199.553 7.66994C199.656 7.8047 199.73 7.96878 199.777 8.16394C199.825 8.36878 199.85 8.60094 199.85 8.86036C199.85 9.13856 199.816 9.36994 199.749 9.55474C199.683 9.73816 199.598 9.88326 199.493 9.99211C199.389 10.1002 199.272 10.1764 199.14 10.2224C199.001 10.2712 198.857 10.2955 198.709 10.2955H197.851ZM209.167 9.68963C209.167 9.84296 209.193 9.96743 209.243 10.0648L209.243 10.0649C209.294 10.1653 209.361 10.2448 209.444 10.3056C209.531 10.3697 209.635 10.418 209.758 10.4502C209.887 10.4841 210.021 10.5011 210.159 10.5011C210.255 10.5011 210.358 10.493 210.468 10.4765C210.569 10.4616 210.663 10.433 210.751 10.3905C210.83 10.3523 210.894 10.3008 210.946 10.235C210.987 10.1822 211.009 10.1118 211.009 10.0168C211.009 9.9202 210.982 9.85116 210.928 9.79731C210.855 9.7247 210.755 9.66183 210.627 9.60987C210.487 9.55287 210.327 9.50244 210.145 9.45876C209.952 9.41228 209.758 9.36089 209.568 9.30601C209.361 9.25369 209.16 9.18921 208.963 9.11278C208.757 9.03279 208.571 8.9287 208.407 8.80044C208.236 8.66706 208.097 8.50009 207.993 8.30132C207.885 8.09671 207.832 7.8539 207.832 7.57501C207.832 7.26352 207.899 6.98796 208.033 6.7521C208.164 6.52296 208.335 6.33116 208.547 6.17819C208.755 6.02786 208.99 5.91678 209.25 5.84497C209.505 5.77472 209.761 5.73949 210.017 5.73949C210.311 5.73949 210.594 5.77296 210.865 5.83997C211.144 5.90895 211.394 6.0214 211.613 6.17747C211.837 6.3368 212.015 6.54068 212.146 6.78751C212.279 7.03822 212.344 7.33698 212.344 7.68159V7.87418H212.155H211.019H210.841L210.83 7.69377C210.821 7.55784 210.795 7.45043 210.752 7.37101C210.71 7.2927 210.656 7.23332 210.589 7.19016C210.514 7.14226 210.427 7.10768 210.327 7.08677C210.218 7.06412 210.097 7.05265 209.965 7.05265C209.883 7.05265 209.802 7.06139 209.72 7.07881C209.647 7.09448 209.583 7.12111 209.525 7.15883C209.47 7.19536 209.425 7.23998 209.39 7.29396C209.362 7.33608 209.347 7.39544 209.347 7.4762C209.347 7.54956 209.359 7.60124 209.378 7.63374C209.396 7.66247 209.446 7.7017 209.533 7.74297C209.638 7.79305 209.79 7.84526 209.987 7.89855C210.189 7.95313 210.456 8.02326 210.787 8.1089C210.893 8.13056 211.037 8.16866 211.218 8.22328C211.413 8.28202 211.606 8.37502 211.796 8.50184C211.992 8.63326 212.161 8.80795 212.302 9.02426C212.451 9.25362 212.524 9.54006 212.524 9.87984C212.524 10.1552 212.471 10.413 212.365 10.6514C212.258 10.8921 212.099 11.0998 211.89 11.2729C211.683 11.4441 211.429 11.5758 211.13 11.6689C210.835 11.7611 210.496 11.8068 210.114 11.8068C209.804 11.8068 209.503 11.7679 209.211 11.6902C208.911 11.6107 208.645 11.4851 208.414 11.3134C208.179 11.1388 207.991 10.9154 207.853 10.6458C207.713 10.3723 207.647 10.0518 207.652 9.68668L207.655 9.49704H207.842H208.978H209.167V9.68963ZM203.691 10.0648C203.641 9.96743 203.615 9.84296 203.615 9.68963V9.49704H203.426H202.29H202.103L202.1 9.68668C202.095 10.0518 202.161 10.3723 202.301 10.6458C202.439 10.9154 202.627 11.1388 202.862 11.3134C203.093 11.4851 203.359 11.6107 203.659 11.6902C203.951 11.7679 204.252 11.8068 204.562 11.8068C204.944 11.8068 205.283 11.7611 205.578 11.6689C205.877 11.5758 206.131 11.4441 206.338 11.2729C206.547 11.0998 206.706 10.8921 206.813 10.6514C206.919 10.413 206.972 10.1552 206.972 9.87984C206.972 9.54006 206.899 9.25362 206.75 9.02426C206.609 8.80795 206.44 8.63326 206.244 8.50184C206.054 8.37502 205.861 8.28202 205.666 8.22328C205.485 8.16866 205.341 8.13056 205.235 8.1089C204.904 8.02326 204.637 7.95313 204.435 7.89855C204.238 7.84526 204.086 7.79305 203.981 7.74297C203.894 7.7017 203.844 7.66247 203.826 7.63374C203.807 7.60124 203.795 7.54956 203.795 7.4762C203.795 7.39544 203.81 7.33608 203.838 7.29396C203.873 7.23998 203.918 7.19536 203.973 7.15883C204.031 7.12111 204.095 7.09448 204.168 7.07881C204.25 7.06139 204.331 7.05265 204.413 7.05265C204.545 7.05265 204.666 7.06412 204.775 7.08677C204.875 7.10768 204.962 7.14226 205.037 7.19016C205.104 7.23332 205.158 7.2927 205.2 7.37101C205.243 7.45043 205.269 7.55784 205.278 7.69377L205.289 7.87418H205.467H206.603H206.792V7.68159C206.792 7.33698 206.727 7.03822 206.594 6.78751C206.463 6.54068 206.285 6.3368 206.061 6.17747C205.842 6.0214 205.592 5.90895 205.313 5.83997C205.042 5.77296 204.759 5.73949 204.465 5.73949C204.209 5.73949 203.953 5.77472 203.698 5.84497C203.438 5.91678 203.203 6.02786 202.995 6.17819C202.783 6.33116 202.612 6.52296 202.481 6.7521C202.347 6.98796 202.28 7.26352 202.28 7.57501C202.28 7.8539 202.333 8.09671 202.441 8.30132C202.545 8.50009 202.684 8.66706 202.855 8.80044C203.019 8.9287 203.205 9.03279 203.411 9.11278C203.608 9.18921 203.809 9.25369 204.016 9.30601C204.206 9.36089 204.4 9.41228 204.593 9.45876C204.775 9.50244 204.935 9.55287 205.075 9.60987C205.203 9.66183 205.303 9.7247 205.376 9.79731C205.43 9.85116 205.457 9.9202 205.457 10.0168C205.457 10.1118 205.435 10.1822 205.394 10.235C205.342 10.3008 205.278 10.3523 205.199 10.3905C205.111 10.433 205.017 10.4616 204.916 10.4765C204.806 10.493 204.703 10.5011 204.607 10.5011C204.469 10.5011 204.335 10.4841 204.206 10.4502C204.083 10.418 203.979 10.3697 203.892 10.3056C203.809 10.2448 203.742 10.1653 203.691 10.0649L203.691 10.0648ZM170.494 10.9902C170.355 10.9903 170.302 11.0547 170.303 11.1881C170.305 11.4455 170.309 12.4751 170.301 12.7321C170.295 12.8924 170.347 12.9623 170.513 12.9623C170.662 12.9622 170.814 12.9624 170.963 12.9626H170.965H170.967C171.219 12.9629 171.464 12.9632 171.684 12.9623C172.142 12.9603 172.435 12.4894 172.471 12.0634C172.503 11.6797 172.33 10.9898 171.768 10.9902C171.543 10.9903 171.329 10.9903 171.114 10.9902H171.112H171.109H171.105H171.1C170.904 10.9902 170.705 10.9901 170.494 10.9902ZM190.16 16.5358L190.16 16.5358C190.174 16.4976 190.185 16.4671 190.201 16.4399L190.367 16.1606C190.636 15.7078 190.906 15.2549 191.18 14.8054C191.285 14.6328 191.398 14.4644 191.51 14.296L191.51 14.296L191.51 14.2959C191.569 14.2073 191.628 14.1187 191.686 14.0295C191.697 14.0127 191.706 13.993 191.715 13.9742C191.751 13.9018 191.779 13.8436 191.847 14.0256C191.976 14.3696 192.117 14.7088 192.258 15.0479L192.258 15.0483C192.332 15.227 192.406 15.4057 192.479 15.5851C192.484 15.5968 192.489 15.6084 192.493 15.6199C192.541 15.7304 192.582 15.8269 192.376 15.8891C191.867 16.0434 191.362 16.2134 190.857 16.3835C190.654 16.4519 190.451 16.5204 190.247 16.5878C190.237 16.5912 190.226 16.5925 190.203 16.5954C190.187 16.5974 190.165 16.6001 190.134 16.6045C190.144 16.5789 190.153 16.5563 190.16 16.5358ZM186.082 17.7869L186.215 17.8671L186.361 17.7933C186.347 17.7863 186.333 17.7777 186.319 17.7692C186.287 17.7496 186.255 17.73 186.222 17.7293C186.19 17.7285 186.158 17.7466 186.125 17.7647C186.111 17.7726 186.097 17.7806 186.082 17.7869Z" fill="#16656D"/>
<path d="M184.704 19.6461C184.704 19.6461 183.413 17.9695 182.768 17.1305C182.547 16.8419 182.34 16.5402 182.108 16.2615C182.003 16.1356 182.048 16.0846 182.147 16.0142C182.603 15.6931 183.061 15.3765 183.509 15.0448C183.689 14.9117 183.795 14.9904 183.925 15.1184C184.589 15.7716 185.928 17.0677 185.928 17.0677C185.928 17.0677 186.269 17.4006 186.485 16.9968C187.027 15.9839 187.565 14.9692 188.118 13.9627C188.648 12.9985 189.252 12.0863 189.974 11.2616C190.732 10.3952 191.493 9.53235 192.254 8.66797C192.266 8.65419 192.279 8.64104 192.291 8.62733C192.521 8.36854 192.851 7.96369 192.992 7.88009C193.35 7.63157 195.246 7.84995 195.381 7.86528C195.285 7.97409 195.195 8.08973 195.091 8.19052C194.62 8.6484 194.127 9.08341 193.676 9.56085C192.411 10.9005 191.34 12.3929 190.422 14.0077C189.547 15.5457 188.634 17.0608 187.739 18.5865C187.637 18.7598 187.447 19.1134 187.447 19.1134C187.447 19.1134 187.072 19.6305 186.837 19.7906C186.772 19.8351 186.611 19.9955 186.458 20.0584C186.368 20.0952 186.212 20.1192 186.055 20.1349C185.715 20.1688 185.372 20.095 185.074 19.923C184.953 19.8531 184.834 19.7724 184.746 19.6872L184.704 19.6461Z" fill="#2DB54D"/>
<path d="M343.502 12.9993V4.30648H345.462V12.9993H343.502Z" fill="#222222"/>
<path d="M350.166 13.1593C349.597 13.1593 349.028 13.0527 348.459 12.8393C347.899 12.626 347.397 12.3149 346.953 11.9061L348.073 10.5595C348.384 10.8261 348.73 11.0439 349.113 11.2128C349.495 11.3816 349.864 11.4661 350.219 11.4661C350.628 11.4661 350.93 11.3905 351.126 11.2394C351.33 11.0883 351.432 10.8839 351.432 10.6261C351.432 10.3506 351.317 10.1506 351.086 10.0262C350.864 9.89283 350.561 9.74617 350.179 9.58618L349.046 9.10621C348.753 8.98177 348.473 8.81734 348.206 8.6129C347.939 8.39958 347.722 8.13737 347.553 7.82628C347.384 7.51519 347.299 7.15076 347.299 6.73301C347.299 6.25303 347.428 5.8175 347.686 5.42641C347.953 5.03532 348.317 4.72423 348.779 4.49313C349.25 4.26203 349.788 4.14648 350.392 4.14648C350.89 4.14648 351.388 4.24426 351.886 4.4398C352.383 4.63535 352.819 4.91978 353.192 5.29309L352.192 6.53302C351.908 6.31081 351.624 6.14193 351.339 6.02638C351.055 5.90194 350.739 5.83972 350.392 5.83972C350.055 5.83972 349.784 5.91083 349.579 6.05305C349.384 6.18637 349.286 6.37747 349.286 6.62635C349.286 6.893 349.41 7.09299 349.659 7.22631C349.917 7.35964 350.232 7.50185 350.606 7.65296L351.726 8.10627C352.25 8.31959 352.668 8.6129 352.979 8.98622C353.29 9.35953 353.446 9.85284 353.446 10.4661C353.446 10.9461 353.317 11.3905 353.059 11.7994C352.801 12.2083 352.428 12.5371 351.939 12.786C351.45 13.0349 350.859 13.1593 350.166 13.1593Z" fill="#222222"/>
<path d="M358.454 13.1593C357.672 13.1593 356.983 12.9771 356.388 12.6127C355.801 12.2483 355.339 11.7283 355.001 11.0528C354.672 10.3684 354.508 9.55507 354.508 8.6129C354.508 7.66185 354.672 6.85745 355.001 6.1997C355.339 5.53307 355.801 5.02644 356.388 4.67979C356.983 4.32425 357.672 4.14648 358.454 4.14648C359.236 4.14648 359.921 4.32425 360.507 4.67979C361.103 5.02644 361.565 5.53307 361.894 6.1997C362.232 6.86633 362.401 7.67073 362.401 8.6129C362.401 9.55507 362.232 10.3684 361.894 11.0528C361.565 11.7283 361.103 12.2483 360.507 12.6127C359.921 12.9771 359.236 13.1593 358.454 13.1593ZM358.454 11.4661C359.05 11.4661 359.521 11.2083 359.867 10.6928C360.214 10.1773 360.387 9.48397 360.387 8.6129C360.387 7.74184 360.214 7.06188 359.867 6.57302C359.521 6.08415 359.05 5.83972 358.454 5.83972C357.859 5.83972 357.388 6.08415 357.041 6.57302C356.694 7.06188 356.521 7.74184 356.521 8.6129C356.521 9.48397 356.694 10.1773 357.041 10.6928C357.388 11.2083 357.859 11.4661 358.454 11.4661Z" fill="#222222"/>
<path d="M366.171 12.9993V11.8794C366.891 11.195 367.526 10.5772 368.078 10.0262C368.638 9.46619 369.073 8.95511 369.384 8.49291C369.695 8.02183 369.851 7.58629 369.851 7.18632C369.851 6.76856 369.74 6.45302 369.517 6.2397C369.304 6.01749 369.015 5.90639 368.651 5.90639C368.349 5.90639 368.073 5.99527 367.824 6.17304C367.584 6.34192 367.358 6.54191 367.144 6.77301L366.078 5.71973C366.495 5.27531 366.922 4.942 367.358 4.71979C367.793 4.48869 368.313 4.37314 368.917 4.37314C369.477 4.37314 369.966 4.48424 370.384 4.70645C370.802 4.92866 371.126 5.2442 371.357 5.65307C371.597 6.05305 371.717 6.52413 371.717 7.06632C371.717 7.53741 371.584 8.02183 371.317 8.51958C371.06 9.00844 370.726 9.50174 370.317 9.99949C369.909 10.4884 369.473 10.9728 369.011 11.4527C369.224 11.4261 369.464 11.4039 369.731 11.3861C369.997 11.3594 370.229 11.3461 370.424 11.3461H372.131V12.9993H366.171Z" fill="#222222"/>
<path d="M374.841 12.9993C374.895 12.0572 374.997 11.2128 375.148 10.4661C375.299 9.71951 375.53 9.00399 375.841 8.31959C376.152 7.63518 376.575 6.92411 377.108 6.18637H373.308V4.53313H379.201V5.73306C378.712 6.32859 378.317 6.88855 378.015 7.41297C377.721 7.93739 377.49 8.47513 377.321 9.02621C377.161 9.56841 377.046 10.1595 376.975 10.7994C376.904 11.4394 376.85 12.1727 376.815 12.9993H374.841Z" fill="#222222"/>
<path d="M383.285 13.1593C382.379 13.1593 381.645 12.7816 381.085 12.026C380.534 11.2705 380.259 10.1728 380.259 8.7329C380.259 7.29298 380.534 6.20859 381.085 5.47974C381.645 4.74201 382.379 4.37314 383.285 4.37314C384.192 4.37314 384.921 4.74201 385.472 5.47974C386.032 6.20859 386.312 7.29298 386.312 8.7329C386.312 10.1728 386.032 11.2705 385.472 12.026C384.921 12.7816 384.192 13.1593 383.285 13.1593ZM383.285 11.6394C383.507 11.6394 383.707 11.5594 383.885 11.3994C384.063 11.2305 384.201 10.9372 384.299 10.5195C384.405 10.1017 384.459 9.50619 384.459 8.7329C384.459 7.95961 384.405 7.36853 384.299 6.95966C384.201 6.5508 384.063 6.27081 383.885 6.11971C383.707 5.96861 383.507 5.89305 383.285 5.89305C383.072 5.89305 382.876 5.96861 382.699 6.11971C382.521 6.27081 382.379 6.5508 382.272 6.95966C382.165 7.36853 382.112 7.95961 382.112 8.7329C382.112 9.50619 382.165 10.1017 382.272 10.5195C382.379 10.9372 382.521 11.2305 382.699 11.3994C382.876 11.5594 383.072 11.6394 383.285 11.6394Z" fill="#222222"/>
<path d="M390.329 13.1593C389.423 13.1593 388.689 12.7816 388.129 12.026C387.578 11.2705 387.303 10.1728 387.303 8.7329C387.303 7.29298 387.578 6.20859 388.129 5.47974C388.689 4.74201 389.423 4.37314 390.329 4.37314C391.236 4.37314 391.965 4.74201 392.516 5.47974C393.076 6.20859 393.356 7.29298 393.356 8.7329C393.356 10.1728 393.076 11.2705 392.516 12.026C391.965 12.7816 391.236 13.1593 390.329 13.1593ZM390.329 11.6394C390.551 11.6394 390.751 11.5594 390.929 11.3994C391.107 11.2305 391.245 10.9372 391.342 10.5195C391.449 10.1017 391.502 9.50619 391.502 8.7329C391.502 7.95961 391.449 7.36853 391.342 6.95966C391.245 6.5508 391.107 6.27081 390.929 6.11971C390.751 5.96861 390.551 5.89305 390.329 5.89305C390.116 5.89305 389.92 5.96861 389.742 6.11971C389.565 6.27081 389.423 6.5508 389.316 6.95966C389.209 7.36853 389.156 7.95961 389.156 8.7329C389.156 9.50619 389.209 10.1017 389.316 10.5195C389.423 10.9372 389.565 11.2305 389.742 11.3994C389.92 11.5594 390.116 11.6394 390.329 11.6394Z" fill="#222222"/>
<path d="M394.786 12.9993V11.4127H396.626V6.51969H395.04V5.30642C395.502 5.21754 395.893 5.11088 396.213 4.98644C396.533 4.862 396.844 4.7109 397.146 4.53313H398.586V11.4127H400.173V12.9993H394.786Z" fill="#222222"/>
<path d="M335.81 3C337.399 3 338.91 3.37331 340.254 4.03883L340.256 5.54319C339.862 5.30543 339.448 5.09655 339.018 4.921C339.533 5.66985 340.001 6.58313 340.353 7.65974L340.254 7.37753L340.256 18.5591C339.961 19.4102 339.607 20.1535 339.192 20.7912L338.995 21.0801C339.435 20.9023 339.856 20.6924 340.255 20.4524V21.9567C338.916 22.6234 337.407 23 335.81 23C332.156 23 328.924 21.009 327.192 18.0592L327.121 17.9181C326.279 16.4659 325.81 14.7793 325.81 12.9994C325.81 11.2195 326.302 9.53297 327.121 8.08194C327.121 8.03528 327.168 7.9875 327.192 7.94084C328.925 4.991 332.132 3 335.81 3ZM335.131 18.3391H332.649C333.281 20.0479 334.193 21.1723 335.131 21.5467V18.3391ZM338.947 18.3391H336.465V21.5467C337.402 21.1723 338.315 20.0479 338.947 18.3391ZM331.243 18.3391H328.948C329.909 19.5569 331.15 20.4935 332.577 21.079C332.063 20.329 331.594 19.4158 331.243 18.3391ZM330.47 13.655H327.144C327.239 14.8727 327.567 15.9971 328.105 17.0037H330.892C330.658 15.9737 330.518 14.8493 330.47 13.655ZM335.131 13.655H331.805C331.852 14.896 331.992 16.0204 332.25 17.0037H335.132V13.655H335.131ZM339.79 13.655H336.465V17.0037H339.346C339.579 16.0204 339.744 14.896 339.79 13.655ZM330.891 8.99522H328.107C327.568 10.0018 327.24 11.1262 327.146 12.3439H330.471C330.519 11.1495 330.659 10.0252 330.893 8.99522H330.891ZM335.131 8.99522H332.25C332.016 9.9785 331.852 11.1029 331.805 12.3439H335.131V8.99522ZM339.346 8.99522H336.465V12.3439H339.79C339.744 11.1029 339.604 9.9785 339.346 8.99522ZM332.602 4.91989C331.15 5.50542 329.909 6.44203 328.971 7.65974H331.266C331.618 6.58202 332.063 5.66985 332.601 4.91989H332.602ZM335.131 4.45214C334.194 4.82657 333.281 5.95095 332.649 7.65974H335.131V4.45214ZM336.465 4.45214V7.65974H338.947C338.315 5.95095 337.403 4.82657 336.465 4.45214Z" fill="#3B5895"/>
<path d="M345.48 21.9945C344.994 21.9945 344.559 21.876 344.173 21.639C343.794 21.3961 343.492 21.0494 343.267 20.5991C343.048 20.1487 342.938 19.6065 342.938 18.9725C342.938 18.3444 343.051 17.8052 343.276 17.3548C343.501 16.9045 343.809 16.5578 344.2 16.3149C344.591 16.0719 345.033 15.9504 345.525 15.9504C345.88 15.9504 346.194 16.0245 346.467 16.1726C346.739 16.3149 346.959 16.4808 347.124 16.6704L346.724 17.1504C346.57 16.9845 346.396 16.8511 346.2 16.7504C346.004 16.6497 345.782 16.5993 345.533 16.5993C345.166 16.5993 344.843 16.6971 344.565 16.8926C344.292 17.0822 344.079 17.3518 343.925 17.7015C343.776 18.0511 343.702 18.4688 343.702 18.9547C343.702 19.4406 343.776 19.8643 343.925 20.2258C344.073 20.5813 344.28 20.8568 344.547 21.0524C344.819 21.2479 345.139 21.3457 345.507 21.3457C345.785 21.3457 346.034 21.2864 346.253 21.1679C346.473 21.0494 346.674 20.8894 346.858 20.688L347.267 21.1502C347.036 21.4168 346.775 21.6242 346.484 21.7723C346.194 21.9205 345.859 21.9945 345.48 21.9945Z" fill="#222222"/>
<path d="M348.354 21.8879V16.0571H351.713V16.6793H349.091V18.5103H351.305V19.1414H349.091V21.2568H351.802V21.8879H348.354Z" fill="#222222"/>
<path d="M353.041 21.8879V16.0571H354.863C355.26 16.0571 355.613 16.1104 355.921 16.2171C356.229 16.3178 356.469 16.4897 356.641 16.7326C356.818 16.9696 356.907 17.2896 356.907 17.6926C356.907 18.1429 356.789 18.5073 356.552 18.7858C356.315 19.0584 355.995 19.2451 355.592 19.3458L357.076 21.8879H356.241L354.836 19.4258H353.779V21.8879H353.041ZM353.779 18.8214H354.756C355.213 18.8214 355.562 18.7295 355.805 18.5459C356.048 18.3562 356.17 18.0718 356.17 17.6926C356.17 17.3074 356.048 17.0378 355.805 16.8837C355.562 16.7297 355.213 16.6526 354.756 16.6526H353.779V18.8214Z" fill="#222222"/>
<path d="M359.189 21.8879V16.6793H357.429V16.0571H361.695V16.6793H359.935V21.8879H359.189Z" fill="#222222"/>
<path d="M362.745 21.8879V16.0571H363.483V21.8879H362.745Z" fill="#222222"/>
<path d="M365.08 21.8879V16.0571H368.44V16.6793H365.818V18.6525H368.04V19.2747H365.818V21.8879H365.08Z" fill="#222222"/>
<path d="M369.472 21.8879V16.0571H370.21V21.8879H369.472Z" fill="#222222"/>
<path d="M371.807 21.8879V16.0571H375.167V16.6793H372.545V18.5103H374.758V19.1414H372.545V21.2568H375.256V21.8879H371.807Z" fill="#222222"/>
<path d="M376.494 21.8879V16.0571H377.952C378.853 16.0571 379.537 16.3089 380.005 16.8126C380.473 17.3104 380.707 18.0214 380.707 18.9458C380.707 19.8761 380.473 20.5991 380.005 21.1146C379.543 21.6301 378.871 21.8879 377.988 21.8879H376.494ZM377.232 21.2835H377.899C378.58 21.2835 379.09 21.079 379.428 20.6702C379.771 20.2554 379.943 19.6806 379.943 18.9458C379.943 18.2111 379.771 17.6481 379.428 17.257C379.09 16.86 378.58 16.6615 377.899 16.6615H377.232V21.2835Z" fill="#222222"/>
<path fill-rule="evenodd" clip-rule="evenodd" d="M263.38 13C263.38 18.5228 258.903 23 253.38 23C247.857 23 243.38 18.5228 243.38 13C243.38 7.47715 247.857 3 253.38 3C258.903 3 263.38 7.47715 263.38 13ZM246.788 19.6509C248.54 21.426 250.883 22.4083 253.38 22.4083C255.865 22.4083 258.208 21.426 259.972 19.6627C261.735 17.8757 262.705 15.5207 262.705 13C262.705 10.4793 261.735 8.11241 259.972 6.33727C258.208 4.56212 255.853 3.57987 253.368 3.57987C250.883 3.57987 248.54 4.56212 246.776 6.33727C245.013 8.11241 244.055 10.4674 244.055 12.9882C244.055 15.5089 245.025 17.8757 246.788 19.6509Z" fill="#CCCDCF"/>
<path d="M244.291 12.9994C244.291 7.93427 248.362 3.81592 253.38 3.81592C258.386 3.81592 262.469 7.93427 262.469 12.9994C262.469 18.0645 258.386 22.1828 253.38 22.1828C248.374 22.1828 244.291 18.0645 244.291 12.9994Z" fill="#1C87C9"/>
<path d="M256.54 12.0648H256.516V11.0234C256.516 9.37842 255.534 7.65061 253.191 7.60327C251.214 7.60327 250.137 9.37842 250.137 11.0234V12.0648H250.066C249.629 12.0648 249.344 12.0885 249.344 12.5264V17.4731C249.344 17.911 249.7 17.9938 250.137 17.9938H256.54C256.978 17.9938 257.333 17.8991 257.333 17.4731V12.5264C257.333 12.0885 256.978 12.0648 256.54 12.0648ZM253.995 16.7749H252.741L252.871 14.9879C252.658 14.834 252.528 14.5855 252.528 14.3133C252.528 13.8518 252.907 13.4731 253.368 13.4731C253.83 13.4731 254.208 13.8518 254.208 14.3133C254.208 14.5855 254.078 14.834 253.865 14.9879L253.995 16.7749ZM255.558 12.2897H251.191V11.0234C251.191 10.1003 251.404 8.47901 253.297 8.47901C255.427 8.47901 255.569 10.1003 255.569 11.0234L255.558 12.2897Z" fill="#EBF2F5"/>
<path d="M268.043 9.85238C268.22 10.5388 268.481 11.2015 269.711 11.095C270.563 11.024 271.025 10.7636 271.025 10.1719C271.025 9.56835 270.788 9.35534 269.64 9.10682C268.457 8.84646 267.51 8.53877 267.534 7.50918C267.546 6.77545 268.066 6.05356 269.238 6.07723C271.167 6.11273 271.451 7.28433 271.439 7.78137H270.847C270.859 7.28433 270.256 6.60977 269.392 6.60977C268.504 6.60977 268.185 7.03581 268.185 7.46184C268.185 7.94705 268.824 8.36125 269.853 8.52693C271.38 8.77545 271.605 9.308 271.605 10.1009C271.605 11.0713 270.847 11.6749 269.759 11.6749C267.83 11.6867 267.534 10.7991 267.38 9.84054H268.043V9.85238Z" fill="#292626"/>
<path d="M272.776 9.05904C272.788 10.42 273.699 11.1655 274.682 11.1655C275.64 11.1655 276.22 10.278 276.398 9.85194H276.942C276.729 10.5502 275.936 11.6863 274.658 11.6863C273.096 11.6863 272.232 10.3963 272.232 9.03537C272.232 7.50874 273.214 6.08862 274.717 6.08862C276.303 6.08862 276.954 7.61525 276.954 8.633C276.954 8.78685 276.954 8.92886 276.942 9.07087H272.776V9.05904ZM276.398 8.58567C276.386 7.53241 275.699 6.5975 274.693 6.5975C273.64 6.5975 272.918 7.47324 272.8 8.58567H276.398Z" fill="#292626"/>
<path d="M291.451 9.05904C291.463 10.42 292.374 11.1655 293.356 11.1655C294.315 11.1655 294.895 10.278 295.072 9.85194H295.617C295.404 10.5502 294.611 11.6863 293.333 11.6863C291.77 11.6863 290.906 10.3963 290.906 9.03537C290.906 7.50874 291.889 6.08862 293.392 6.08862C294.978 6.08862 295.628 7.61525 295.628 8.633C295.628 8.78685 295.628 8.92886 295.617 9.07087H291.451V9.05904ZM295.072 8.58567C295.06 7.53241 294.374 6.5975 293.368 6.5975C292.315 6.5975 291.593 7.47324 291.475 8.58567H295.072Z" fill="#292626"/>
<path d="M282.09 9.56792C282.09 10.9525 280.965 11.6863 279.806 11.6863C278.516 11.6863 277.391 10.633 277.391 8.85786C277.391 7.3904 278.35 6.08862 279.865 6.08862C281.178 6.08862 282.042 7.0472 282.054 7.93478H281.462C281.309 7.31939 280.859 6.58566 279.841 6.5975C278.906 6.60933 278.054 7.55608 278.054 8.89336C278.054 10.1596 278.729 11.1774 279.794 11.1774C280.539 11.1774 281.462 10.42 281.462 9.56792H282.09Z" fill="#292626"/>
<path d="M287.143 10.006C287.143 10.5267 287.155 11.3551 287.155 11.5563H286.575C286.575 11.4498 286.575 10.7752 286.575 10.6332C286.362 11.2604 285.688 11.6865 284.788 11.6865C284.043 11.6865 282.954 11.3788 282.954 9.74562V6.21899H283.475V9.62728C283.475 10.4083 283.854 11.1539 284.859 11.1539C285.996 11.1539 286.528 9.99414 286.528 8.96456V6.21899H287.132L287.143 10.006Z" fill="#292626"/>
<path d="M288.327 7.67462C288.327 6.78704 288.315 6.39651 288.315 6.21899H288.835C288.847 6.38467 288.859 6.62136 288.859 7.29592C289.155 6.50302 290.066 6.26633 290.906 6.23083V6.82254C289.841 6.89355 288.954 7.50893 288.954 8.78704V11.5563H288.327V7.67462Z" fill="#292626"/>
<path d="M270.421 16.6207C270.196 16.7035 269.759 16.8218 269.262 16.8218C268.658 16.8218 268.208 16.668 267.877 16.3603C267.581 16.0881 267.415 15.6857 267.415 15.236C267.415 14.2893 268.149 13.5911 269.344 13.5911C269.794 13.5911 270.137 13.6857 270.303 13.7567L270.161 14.2301C269.96 14.1473 269.711 14.0763 269.321 14.0763C268.563 14.0763 268.043 14.5023 268.043 15.1887C268.043 15.8633 268.528 16.3366 269.285 16.3366C269.534 16.3366 269.723 16.3011 269.818 16.2656V15.5082H269.191V15.0349H270.409L270.421 16.6207Z" fill="#095BAC"/>
<path d="M271.072 13.4258H271.676V16.7867H271.072V13.4258Z" fill="#095BAC"/>
<path d="M274.776 15.6147C274.776 16.4313 274.149 16.8455 273.486 16.8455C272.788 16.8455 272.232 16.3839 272.232 15.662C272.232 14.9402 272.753 14.4431 273.534 14.4431C274.279 14.4431 274.776 14.952 274.776 15.6147ZM272.859 15.6502C272.859 16.1118 273.131 16.4194 273.51 16.4194C273.865 16.4194 274.161 16.1473 274.161 15.6502C274.161 15.2834 273.972 14.881 273.522 14.881C273.06 14.881 272.859 15.2478 272.859 15.6502Z" fill="#095BAC"/>
<path d="M275.309 16.7867C275.321 16.6329 275.333 16.3844 275.333 16.1358V13.4258H275.936V14.8459H275.948C276.102 14.6092 276.374 14.4554 276.764 14.4554C277.368 14.4554 277.83 14.9169 277.83 15.627C277.83 16.4554 277.238 16.8577 276.682 16.8577C276.362 16.8577 276.054 16.7394 275.865 16.4317H275.853L275.83 16.7986H275.309V16.7867ZM275.924 15.8045C275.924 15.8518 275.924 15.8992 275.936 15.9347C275.995 16.1713 276.22 16.3725 276.528 16.3725C276.93 16.3725 277.19 16.0885 277.19 15.627C277.19 15.2364 276.966 14.8932 276.54 14.8932C276.267 14.8932 276.019 15.0708 275.948 15.3548C275.936 15.4021 275.924 15.4494 275.924 15.5086V15.8045Z" fill="#095BAC"/>
<path d="M279.747 16.7862L279.7 16.5258H279.688C279.546 16.7033 279.274 16.8454 278.954 16.8454C278.445 16.8454 278.185 16.4903 278.185 16.159C278.185 15.5791 278.706 15.2832 279.652 15.2832V15.2477C279.652 15.1294 279.605 14.8454 279.143 14.8454C278.895 14.8454 278.635 14.9282 278.469 15.0347L278.35 14.6442C278.54 14.5258 278.859 14.4312 279.25 14.4312C280.031 14.4312 280.256 14.9164 280.256 15.4252V16.2181C280.256 16.4312 280.268 16.6442 280.291 16.7743L279.747 16.7862ZM279.676 15.6738C279.203 15.6619 278.788 15.7684 278.788 16.088C278.788 16.301 278.942 16.4075 279.143 16.4075C279.416 16.4075 279.593 16.2418 279.652 16.0761C279.664 16.0288 279.664 15.9814 279.664 15.9459L279.676 15.6738Z" fill="#095BAC"/>
<path d="M280.954 13.4258H281.558V16.7867H280.954V13.4258Z" fill="#095BAC"/>
<path d="M282.291 16.1237C282.504 16.2421 282.812 16.3486 283.143 16.3486C283.534 16.3486 283.747 16.1829 283.747 15.9225C283.747 15.6858 283.581 15.5557 283.143 15.4137C282.563 15.2361 282.197 14.9758 282.197 14.4787C282.197 13.9462 282.658 13.5557 283.38 13.5557C283.771 13.5557 284.043 13.6267 284.232 13.7213L284.078 14.1947C283.96 14.1355 283.7 14.029 283.368 14.029C282.978 14.029 282.812 14.2302 282.812 14.4077C282.812 14.6444 283.013 14.7628 283.475 14.9166C284.078 15.106 284.374 15.3781 284.374 15.8634C284.374 16.3486 283.995 16.8219 283.096 16.8219C282.729 16.8219 282.339 16.7154 282.149 16.5971L282.291 16.1237Z" fill="#095BAC"/>
<path d="M285.616 13.8518C285.616 14.0293 285.486 14.1713 285.273 14.1713C285.06 14.1713 284.942 14.0293 284.942 13.8518C284.942 13.6742 285.072 13.5322 285.285 13.5322C285.498 13.5322 285.616 13.6742 285.616 13.8518ZM284.966 16.7867V14.5026H285.569V16.7867H284.966Z" fill="#095BAC"/>
<path d="M288.552 14.5029C288.54 14.6449 288.528 14.8224 288.528 15.142V16.4437C288.528 16.9053 288.421 17.2721 288.161 17.5088C287.889 17.7337 287.534 17.7928 287.214 17.7928C286.895 17.7928 286.552 17.7218 286.339 17.5917L286.469 17.1301C286.634 17.2366 286.907 17.3313 287.214 17.3313C287.617 17.3313 287.936 17.1301 287.936 16.6212V16.4082H287.924C287.77 16.6212 287.522 16.7751 287.179 16.7751C286.575 16.7751 286.114 16.3136 286.114 15.6627C286.114 14.9171 286.646 14.4556 287.238 14.4556C287.64 14.4556 287.865 14.6331 287.983 14.8343H287.995L288.019 14.5147L288.552 14.5029ZM287.936 15.4615C287.936 15.4023 287.936 15.355 287.924 15.3076C287.853 15.071 287.652 14.8934 287.38 14.8934C287.037 14.8934 286.753 15.1656 286.753 15.639C286.753 15.994 286.966 16.3372 287.38 16.3372C287.64 16.3372 287.853 16.1597 287.912 15.9467C287.924 15.8875 287.936 15.8047 287.936 15.7337V15.4615Z" fill="#095BAC"/>
<path d="M289.25 15.2005C289.25 14.9283 289.238 14.7035 289.226 14.5023H289.759L289.794 14.8692H289.806C289.901 14.6916 290.173 14.4431 290.599 14.4431C291.001 14.4431 291.487 14.6916 291.487 15.4727V16.7863H290.883V15.5437C290.883 15.1887 290.741 14.9283 290.386 14.9283C290.126 14.9283 289.948 15.1177 289.877 15.2834C289.853 15.3307 289.853 15.4017 289.853 15.4609V16.7863H289.25V15.2005Z" fill="#095BAC"/>
<path d="M267.995 20.7513C267.995 20.6921 268.007 20.5856 268.007 20.4791V19.343H268.255V19.9347C268.315 19.8401 268.433 19.7691 268.599 19.7691C268.859 19.7691 269.048 19.9584 269.048 20.2543C269.048 20.5975 268.8 20.775 268.563 20.775C268.433 20.775 268.303 20.7276 268.22 20.5975L268.208 20.7513H267.995ZM268.255 20.3371C268.255 20.3608 268.255 20.3726 268.267 20.3963C268.291 20.4909 268.386 20.5856 268.516 20.5856C268.682 20.5856 268.8 20.4673 268.8 20.2779C268.8 20.1122 268.705 19.9702 268.528 19.9702C268.409 19.9702 268.303 20.0412 268.279 20.1596C268.279 20.1833 268.267 20.1951 268.267 20.2188V20.3371H268.255Z" fill="#095BAC"/>
<path d="M269.403 19.7927L269.593 20.3016C269.616 20.3608 269.64 20.4318 269.652 20.4909H269.664C269.676 20.4318 269.699 20.3608 269.723 20.3016L269.889 19.7927H270.161L269.9 20.4436C269.747 20.8578 269.64 20.9998 269.534 21.0827C269.427 21.1655 269.332 21.1892 269.261 21.201L269.214 20.988C269.25 20.9762 269.309 20.9643 269.356 20.9288C269.403 20.9051 269.463 20.846 269.51 20.775C269.522 20.7631 269.522 20.7395 269.522 20.7276C269.522 20.7158 269.522 20.704 269.51 20.6803L269.119 19.8046L269.403 19.7927Z" fill="#095BAC"/>
<path d="M272.634 20.5148C273.427 20.5148 273.711 20.1952 273.818 19.8639H272.693V19.6154H274.741C274.741 19.6627 274.741 19.6982 274.741 19.7337C274.741 20.4201 273.735 20.9881 272.622 20.9881C271.522 20.9881 270.646 20.4319 270.646 19.7337C270.646 19.0355 271.498 18.5029 272.599 18.5029C273.38 18.5029 274.184 18.8225 274.421 19.1538H273.699C273.474 18.9763 273.226 18.787 272.622 18.787C271.818 18.787 271.439 19.2367 271.439 19.7455C271.451 20.2662 271.829 20.5148 272.634 20.5148Z" fill="#095BAC"/>
<path d="M276.693 20.9405H276.492L275.676 19.6742L275.25 20.9405H274.682L275.475 18.5381H275.759L276.599 19.97L277.427 18.5381H277.723L278.516 20.9405H277.948L277.522 19.6742L276.693 20.9405Z" fill="#095BAC"/>
<path d="M280.575 20.9286C279.439 20.9286 278.551 20.4198 278.551 19.757C278.551 19.0943 279.439 18.5854 280.575 18.5854C281.711 18.5854 282.611 19.0943 282.611 19.757C282.611 20.4079 281.711 20.9286 280.575 20.9286ZM281.877 19.7452C281.877 19.26 281.415 18.905 280.575 18.905C279.735 18.905 279.285 19.2718 279.285 19.7452C279.285 20.2186 279.735 20.5854 280.575 20.5854C281.415 20.5854 281.877 20.2304 281.877 19.7452Z" fill="#095BAC"/>
<path d="M257.711 4.69188V10.5025L261.119 12.7866L264.622 10.5025V4.69188C264.374 4.69188 261.155 3.54395 261.155 3.54395C261.155 3.54395 257.806 4.69188 257.711 4.69188Z" fill="#044764"/>
<path d="M261.12 13.0347L257.522 10.6087V4.49033H257.699C257.924 4.43116 259.877 3.76844 261.084 3.35424L261.155 3.33057L261.226 3.35424C262.729 3.88678 264.421 4.46666 264.634 4.49033H264.824V10.6087L261.12 13.0347ZM257.913 10.3957L261.12 12.5495L264.421 10.3957V4.84536C263.794 4.67968 262.019 4.06429 261.155 3.74477C259.013 4.4785 258.22 4.73885 257.913 4.83353V10.3957Z" fill="white"/>
<path d="M259.167 6.52661C258.895 6.52661 258.776 6.68046 258.835 6.82247C258.906 6.99998 259.403 7.03549 259.841 7.40235C260.256 7.75738 260.078 8.32543 259.9 8.59762C259.723 8.86981 259.25 8.89347 258.966 8.82247C258.492 8.70413 258.421 8.43194 258.362 8.31359C258.315 8.21892 258.303 7.84022 258.303 7.84022H258.753C258.741 8.13608 258.859 8.30176 259.001 8.33726C259.179 8.37277 259.38 8.3846 259.474 8.33726C259.581 8.28993 259.664 8.11241 259.545 7.87572C259.427 7.6272 258.634 7.56803 258.409 7.15383C258.232 6.82247 258.338 6.45561 258.563 6.25442C258.764 6.08874 259.226 5.98223 259.486 6.10058C259.628 6.17158 259.936 6.37277 259.995 6.64496C260.019 6.7633 259.995 6.91714 259.818 6.91714C259.581 6.91714 259.581 6.7988 259.486 6.70413C259.463 6.66862 259.309 6.52661 259.167 6.52661Z" fill="white"/>
<path d="M261.167 6.52661C260.895 6.52661 260.776 6.68046 260.836 6.82247C260.907 6.99998 261.404 7.03549 261.841 7.40235C262.256 7.75738 262.078 8.32543 261.901 8.59762C261.723 8.86981 261.25 8.89347 260.966 8.82247C260.492 8.70413 260.421 8.43194 260.362 8.31359C260.315 8.21892 260.303 7.84022 260.303 7.84022H260.753C260.741 8.13608 260.859 8.30176 261.001 8.33726C261.179 8.37277 261.38 8.3846 261.475 8.33726C261.581 8.28993 261.664 8.11241 261.546 7.87572C261.427 7.6272 260.634 7.56803 260.409 7.15383C260.232 6.82247 260.338 6.45561 260.563 6.25442C260.765 6.08874 261.226 5.98223 261.486 6.10058C261.628 6.17158 261.936 6.37277 261.995 6.64496C262.019 6.7633 261.995 6.91714 261.818 6.91714C261.581 6.91714 261.581 6.7988 261.486 6.70413C261.463 6.66862 261.321 6.52661 261.167 6.52661Z" fill="white"/>
<path d="M262.469 6.24212V8.79834H263.96C263.96 8.79834 264.066 8.81017 264.066 8.54981C264.066 8.27763 263.948 8.3368 263.948 8.3368H262.966V6.24212C262.966 6.24212 263.001 6.12378 262.729 6.12378C262.457 6.12378 262.469 6.24212 262.469 6.24212Z" fill="white"/>
<path d="M266.007 5.30811V21.9708" stroke="#BBC0C3" stroke-width="0.265306"/>
</svg>
